<svg width="33" height="33" viewBox="0 0 33 33" fill="none" xmlns="http://www.w3.org/2000/svg">
<path fill-rule="evenodd" clip-rule="evenodd" d="M16.5 32.261C25.6127 32.261 33 25.0892 33 16.2423C33 7.39545 25.6127 0.223633 16.5 0.223633C7.3873 0.223633 0 7.39545 0 16.2423C0 25.0892 7.3873 32.261 16.5 32.261Z" fill="#6D7F5B"/>
<path fill-rule="evenodd" clip-rule="evenodd" d="M20.2247 11.5634C19.732 11.5634 19.3317 11.9513 19.3317 12.431C19.3317 12.91 19.732 13.2986 20.2247 13.2986C20.7181 13.2986 21.1184 12.91 21.1184 12.431C21.1184 11.9513 20.7181 11.5634 20.2247 11.5634ZM16.5001 18.6276C15.1461 18.6276 14.0438 17.5574 14.0438 16.2416C14.0438 14.9264 15.1461 13.857 16.5001 13.857C17.8548 13.857 18.9571 14.9264 18.9571 16.2416C18.9571 17.5574 17.8548 18.6276 16.5001 18.6276ZM16.5001 12.5143C14.384 12.5143 12.6621 14.1866 12.6621 16.2416C12.6621 18.2973 14.384 19.9696 16.5001 19.9696C18.6169 19.9696 20.3388 18.2973 20.3388 16.2416C20.3388 14.1866 18.6169 12.5143 16.5001 12.5143ZM22.5264 18.2783C22.5197 18.7272 22.5014 19.2062 22.4144 19.6597C22.1781 20.8936 21.4566 21.6439 20.2092 21.9539C19.6361 22.0961 19.0259 22.1007 18.3806 22.1046H18.3739C18.06 22.1066 17.738 22.1072 17.3897 22.1072C16.5136 22.1072 15.6213 22.1013 14.7573 22.0948L14.1775 22.0908C13.7509 22.0876 13.25 22.0686 12.7667 21.9493C11.8217 21.716 11.1791 21.2023 10.8011 20.3785C10.5622 19.855 10.5082 19.2763 10.4873 18.7789C10.4825 18.6715 10.4744 18.5699 10.4657 18.4716L10.4576 18.3733V14.1591C10.4663 14.1165 10.4771 14.0568 10.4792 13.988C10.494 13.4946 10.5149 13.0516 10.6243 12.6283C10.8666 11.6938 11.4066 11.0621 12.276 10.6971C12.8045 10.475 13.3891 10.4252 13.8913 10.4048C14.002 10.4003 14.1073 10.3917 14.2085 10.3839L14.3091 10.376H18.6526C18.6884 10.3832 18.7336 10.3898 18.7856 10.3944C18.9328 10.4068 19.0786 10.4153 19.219 10.4232C19.4984 10.4396 19.7617 10.4546 20.0053 10.4986C20.6439 10.6152 21.165 10.8511 21.5524 11.1991C21.9412 11.5497 22.22 12.0359 22.3806 12.6453C22.5244 13.1912 22.5298 13.7737 22.5359 14.3891V14.4422C22.548 15.7311 22.5453 17.0221 22.5264 18.2783ZM23.9183 14.4303L23.9176 14.3773C23.9115 13.7082 23.9048 13.0162 23.7198 12.3124C23.2669 10.5922 22.0701 9.50903 20.2598 9.18007C19.9304 9.11978 19.6105 9.10143 19.3006 9.08374C19.167 9.07653 19.0401 9.06867 18.9152 9.05818C18.9085 9.05687 18.9024 9.05556 18.8956 9.05425C18.8774 9.05163 18.8592 9.0477 18.8396 9.04442L18.7802 9.03394H14.2571L14.2321 9.0359C14.1862 9.03918 14.1397 9.04245 14.0944 9.04639C14.0026 9.05359 13.9162 9.0608 13.8352 9.06408C13.2426 9.08767 12.4677 9.15451 11.7272 9.46512C10.4542 9.99985 9.63274 10.954 9.28444 12.3006C9.14404 12.8432 9.11569 13.374 9.09882 13.914C9.0941 13.9343 9.09005 13.9539 9.086 13.9736L9.0752 14.0319V18.4238L9.07722 18.448C9.0806 18.4932 9.08465 18.5378 9.0887 18.5823C9.09612 18.6708 9.10287 18.754 9.10624 18.8333C9.13054 19.4211 9.20277 20.1891 9.53891 20.9237C10.0917 22.1308 11.0637 22.9139 12.4265 23.2494C13.057 23.4054 13.6874 23.429 14.1667 23.4329L14.7471 23.4368C15.6132 23.4427 16.5082 23.4499 17.3897 23.4499C17.7414 23.4499 18.0661 23.4486 18.3826 23.4466H18.3894C19.09 23.4421 19.815 23.4375 20.5514 23.254C22.3232 22.8136 23.4377 21.6557 23.7731 19.9054C23.8791 19.351 23.9007 18.7816 23.9081 18.2973C23.9264 17.0306 23.9304 15.7298 23.9183 14.4303Z" fill="white"/>
</svg>
