<svg width="32" height="33" viewBox="0 0 32 33" fill="none" xmlns="http://www.w3.org/2000/svg">
<path fill-rule="evenodd" clip-rule="evenodd" d="M16 32.0374C24.8366 32.0374 32 24.8656 32 16.0187C32 7.17182 24.8366 0 16 0C7.16344 0 0 7.17182 0 16.0187C0 24.8656 7.16344 32.0374 16 32.0374Z" fill="#6D7F5B"/>
<path d="M16.2173 8.0094C11.8313 8.01007 9.5 10.8234 9.5 13.8909C9.5 15.3133 10.294 17.088 11.5653 17.6507C11.928 17.8142 11.88 17.6146 12.192 16.4199C12.2167 16.3204 12.204 16.2343 12.124 16.1416C10.3067 14.0371 11.7693 9.71072 15.958 9.71072C22.02 9.71072 20.8873 18.1085 17.0127 18.1085C16.014 18.1085 15.27 17.3236 15.5053 16.3525C15.7907 15.1958 16.3493 13.9523 16.3493 13.1187C16.3493 11.0176 13.2227 11.3293 13.2227 14.1132C13.2227 14.9735 13.5267 15.5542 13.5267 15.5542C13.5267 15.5542 12.5207 19.623 12.334 20.3832C12.018 21.67 12.3767 23.7531 12.408 23.9327C12.4273 24.0314 12.538 24.0628 12.6 23.9814C12.6993 23.8512 13.9153 22.1145 14.256 20.8591C14.38 20.4019 14.8887 18.5464 14.8887 18.5464C15.224 19.1524 16.1907 19.6597 17.2207 19.6597C20.2847 19.6597 22.4993 16.9632 22.4993 13.6173C22.4887 10.4095 19.7467 8.0094 16.2173 8.0094V8.0094Z" fill="white"/>
</svg>
